<mxfile host="app.diagrams.net" modified="2020-11-12T00:30:10.636Z" agent="5.0 (Macintosh; Intel Mac OS X 10_15_7) AppleWebKit/605.1.15 (KHTML, like Gecko) Version/14.0 Safari/605.1.15" etag="ynoo_-eRR-nmc-uosSMM" version="13.8.0" type="github">
  <diagram id="Eho5iryT1MGr5xa_C_5C" name="Page-1">
    <mxGraphModel dx="1215" dy="876" grid="1" gridSize="10" guides="1" tooltips="1" connect="1" arrows="1" fold="1" page="1" pageScale="1" pageWidth="850" pageHeight="1100" math="0" shadow="0">
      <root>
        <mxCell id="0" />
        <mxCell id="1" parent="0" />
        <mxCell id="55JZWZkor4GeVovColOH-11" value="FIXClient" style="shape=umlLifeline;participant=umlActor;perimeter=lifelinePerimeter;whiteSpace=wrap;html=1;container=1;collapsible=0;recursiveResize=0;verticalAlign=top;spacingTop=36;labelBackgroundColor=#ffffff;outlineConnect=0;" parent="1" vertex="1">
          <mxGeometry x="30" y="270" width="20" height="300" as="geometry" />
        </mxCell>
        <mxCell id="55JZWZkor4GeVovColOH-12" value="FIXGateway" style="shape=umlLifeline;participant=umlActor;perimeter=lifelinePerimeter;whiteSpace=wrap;html=1;container=1;collapsible=0;recursiveResize=0;verticalAlign=top;spacingTop=36;labelBackgroundColor=#ffffff;outlineConnect=0;" parent="1" vertex="1">
          <mxGeometry x="270" y="270" width="20" height="300" as="geometry" />
        </mxCell>
        <mxCell id="XxwT-F1ko0Ly8EZt3ref-17" value="&lt;font style=&quot;font-size: 10px&quot;&gt;&lt;b&gt;TOPIC:&lt;/b&gt;&lt;font color=&quot;#3333ff&quot;&gt;EXECUTION_REPORT_TOPIC&lt;/font&gt;&lt;br&gt;&lt;b&gt;TargetCompID&lt;/b&gt;:FIX_GWY_1&lt;br&gt;&lt;b&gt;TargetSubID&lt;/b&gt;:DATA_SERVICE_A&lt;br&gt;&lt;b&gt;SenderSubID&lt;/b&gt;:TRADER_1&lt;br&gt;&lt;/font&gt;" style="endArrow=classic;html=1;" parent="55JZWZkor4GeVovColOH-12" edge="1">
          <mxGeometry x="0.0698" y="-39" relative="1" as="geometry">
            <mxPoint x="289.5" y="249" as="sourcePoint" />
            <mxPoint x="10" y="249" as="targetPoint" />
            <mxPoint x="1" as="offset" />
          </mxGeometry>
        </mxCell>
        <mxCell id="XxwT-F1ko0Ly8EZt3ref-19" value="&lt;b&gt;MATCHING_ENGINE&lt;/b&gt;" style="edgeLabel;resizable=0;html=1;align=left;verticalAlign=bottom;" parent="XxwT-F1ko0Ly8EZt3ref-17" connectable="0" vertex="1">
          <mxGeometry x="-1" relative="1" as="geometry">
            <mxPoint x="-109.5" as="offset" />
          </mxGeometry>
        </mxCell>
        <mxCell id="XxwT-F1ko0Ly8EZt3ref-20" value="&lt;b&gt;FIX_GWY_1&lt;/b&gt;" style="edgeLabel;resizable=0;html=1;align=right;verticalAlign=bottom;" parent="XxwT-F1ko0Ly8EZt3ref-17" connectable="0" vertex="1">
          <mxGeometry x="1" relative="1" as="geometry">
            <mxPoint x="70.5" y="-1" as="offset" />
          </mxGeometry>
        </mxCell>
        <mxCell id="55JZWZkor4GeVovColOH-13" value="MatchingEngine" style="shape=umlLifeline;participant=umlActor;perimeter=lifelinePerimeter;whiteSpace=wrap;html=1;container=1;collapsible=0;recursiveResize=0;verticalAlign=top;spacingTop=36;labelBackgroundColor=#ffffff;outlineConnect=0;" parent="1" vertex="1">
          <mxGeometry x="550" y="270" width="20" height="300" as="geometry" />
        </mxCell>
        <mxCell id="55JZWZkor4GeVovColOH-18" value="DataService&lt;br&gt;" style="shape=umlLifeline;participant=umlActor;perimeter=lifelinePerimeter;whiteSpace=wrap;html=1;container=1;collapsible=0;recursiveResize=0;verticalAlign=top;spacingTop=36;labelBackgroundColor=#ffffff;outlineConnect=0;" parent="1" vertex="1">
          <mxGeometry x="790" y="270" width="20" height="300" as="geometry" />
        </mxCell>
        <mxCell id="XxwT-F1ko0Ly8EZt3ref-1" value="&lt;font style=&quot;font-size: 10px&quot;&gt;&lt;b&gt;TOPIC:&lt;/b&gt;&lt;font color=&quot;#3333ff&quot;&gt;NEW_ORDER_SINGLE_TOPIC&lt;/font&gt;&lt;br&gt;&lt;b&gt;TargetCompID&lt;/b&gt;:MATCHING_ENGINE&lt;br&gt;&lt;b&gt;TargetSubID&lt;/b&gt;: DATA_SERVICE_A&lt;br&gt;&lt;b&gt;SenderSubID&lt;/b&gt;: TRADER_1&lt;br&gt;&lt;b&gt;SecurityExchange&lt;/b&gt;: MARKET_Z&lt;/font&gt;" style="endArrow=classic;html=1;" parent="1" edge="1">
          <mxGeometry x="0.7861" y="130" relative="1" as="geometry">
            <mxPoint x="279.5" y="429" as="sourcePoint" />
            <mxPoint x="560" y="429" as="targetPoint" />
            <Array as="points">
              <mxPoint x="530" y="429" />
            </Array>
            <mxPoint x="-120" y="81" as="offset" />
          </mxGeometry>
        </mxCell>
        <mxCell id="XxwT-F1ko0Ly8EZt3ref-3" value="&lt;b&gt;FIX_GWY_1&lt;/b&gt;" style="edgeLabel;resizable=0;html=1;align=left;verticalAlign=bottom;" parent="XxwT-F1ko0Ly8EZt3ref-1" connectable="0" vertex="1">
          <mxGeometry x="-1" relative="1" as="geometry" />
        </mxCell>
        <mxCell id="XxwT-F1ko0Ly8EZt3ref-4" value="&lt;b&gt;MATCHING_ENGINE&lt;/b&gt;" style="edgeLabel;resizable=0;html=1;align=right;verticalAlign=bottom;" parent="XxwT-F1ko0Ly8EZt3ref-1" connectable="0" vertex="1">
          <mxGeometry x="1" relative="1" as="geometry">
            <mxPoint y="-2" as="offset" />
          </mxGeometry>
        </mxCell>
        <mxCell id="XxwT-F1ko0Ly8EZt3ref-5" value="NewOrderSingle" style="endArrow=classic;html=1;" parent="1" source="55JZWZkor4GeVovColOH-11" target="55JZWZkor4GeVovColOH-12" edge="1">
          <mxGeometry x="0.0042" y="10" relative="1" as="geometry">
            <mxPoint x="60" y="400" as="sourcePoint" />
            <mxPoint x="220" y="400" as="targetPoint" />
            <Array as="points">
              <mxPoint x="140" y="400" />
            </Array>
            <mxPoint as="offset" />
          </mxGeometry>
        </mxCell>
        <mxCell id="XxwT-F1ko0Ly8EZt3ref-7" value="&lt;b&gt;TRADER_1&lt;/b&gt;" style="edgeLabel;resizable=0;html=1;align=left;verticalAlign=bottom;" parent="XxwT-F1ko0Ly8EZt3ref-5" connectable="0" vertex="1">
          <mxGeometry x="-1" relative="1" as="geometry" />
        </mxCell>
        <mxCell id="XxwT-F1ko0Ly8EZt3ref-8" value="&lt;b&gt;FIX_GWY_1&lt;/b&gt;" style="edgeLabel;resizable=0;html=1;align=right;verticalAlign=bottom;" parent="XxwT-F1ko0Ly8EZt3ref-5" connectable="0" vertex="1">
          <mxGeometry x="1" relative="1" as="geometry">
            <mxPoint x="-1" y="-2" as="offset" />
          </mxGeometry>
        </mxCell>
        <mxCell id="XxwT-F1ko0Ly8EZt3ref-21" value="&lt;br&gt;ExecutionReport" style="endArrow=classic;html=1;" parent="1" source="55JZWZkor4GeVovColOH-12" edge="1">
          <mxGeometry x="-0.0042" y="-19" relative="1" as="geometry">
            <mxPoint x="279.5" y="549" as="sourcePoint" />
            <mxPoint x="39.5" y="549" as="targetPoint" />
            <Array as="points">
              <mxPoint x="160" y="549" />
            </Array>
            <mxPoint as="offset" />
          </mxGeometry>
        </mxCell>
        <mxCell id="XxwT-F1ko0Ly8EZt3ref-23" value="&lt;b&gt;FIX_GWY_1&lt;/b&gt;" style="edgeLabel;resizable=0;html=1;align=left;verticalAlign=bottom;" parent="XxwT-F1ko0Ly8EZt3ref-21" connectable="0" vertex="1">
          <mxGeometry x="-1" relative="1" as="geometry">
            <mxPoint x="-69.5" y="-2" as="offset" />
          </mxGeometry>
        </mxCell>
        <mxCell id="XxwT-F1ko0Ly8EZt3ref-24" value="&lt;b&gt;TRADER_1&lt;/b&gt;" style="edgeLabel;resizable=0;html=1;align=right;verticalAlign=bottom;" parent="XxwT-F1ko0Ly8EZt3ref-21" connectable="0" vertex="1">
          <mxGeometry x="1" relative="1" as="geometry">
            <mxPoint x="60.5" y="-3" as="offset" />
          </mxGeometry>
        </mxCell>
        <mxCell id="XxwT-F1ko0Ly8EZt3ref-25" value="" style="endArrow=classic;html=1;" parent="1" edge="1">
          <mxGeometry x="0.0025" y="40" relative="1" as="geometry">
            <mxPoint x="559.5" y="530" as="sourcePoint" />
            <mxPoint x="799.5" y="530" as="targetPoint" />
            <mxPoint as="offset" />
          </mxGeometry>
        </mxCell>
        <mxCell id="XxwT-F1ko0Ly8EZt3ref-26" value="&lt;b style=&quot;font-size: 10px&quot;&gt;TOPIC:&lt;/b&gt;&lt;span style=&quot;font-size: 10px&quot;&gt;&lt;font color=&quot;#3333ff&quot;&gt;EXECUTION_REPORT_TOPIC&lt;/font&gt;&lt;br&gt;&lt;/span&gt;&lt;span style=&quot;font-size: 10px&quot;&gt;&lt;b&gt;TargetCompID&lt;/b&gt;:FIX_GWY_1&lt;/span&gt;&lt;br style=&quot;font-size: 10px&quot;&gt;&lt;span style=&quot;font-size: 10px&quot;&gt;&lt;b&gt;TargetSubID&lt;/b&gt;:DATA_SERVICE_A&lt;/span&gt;&lt;br style=&quot;font-size: 10px&quot;&gt;&lt;span style=&quot;font-size: 10px&quot;&gt;&lt;b&gt;SenderSubID&lt;/b&gt;:TRADER_1&lt;/span&gt;" style="edgeLabel;resizable=0;html=1;align=center;verticalAlign=middle;" parent="XxwT-F1ko0Ly8EZt3ref-25" connectable="0" vertex="1">
          <mxGeometry relative="1" as="geometry">
            <mxPoint y="-44" as="offset" />
          </mxGeometry>
        </mxCell>
        <mxCell id="XxwT-F1ko0Ly8EZt3ref-27" value="&lt;b&gt;MATCHING_ENGINE&lt;/b&gt;" style="edgeLabel;resizable=0;html=1;align=left;verticalAlign=bottom;" parent="XxwT-F1ko0Ly8EZt3ref-25" connectable="0" vertex="1">
          <mxGeometry x="-1" relative="1" as="geometry">
            <mxPoint y="-2" as="offset" />
          </mxGeometry>
        </mxCell>
        <mxCell id="XxwT-F1ko0Ly8EZt3ref-28" value="&lt;b&gt;DATA_SERVICE&lt;/b&gt;" style="edgeLabel;resizable=0;html=1;align=right;verticalAlign=bottom;" parent="XxwT-F1ko0Ly8EZt3ref-25" connectable="0" vertex="1">
          <mxGeometry x="1" relative="1" as="geometry">
            <mxPoint y="-3" as="offset" />
          </mxGeometry>
        </mxCell>
        <mxCell id="XxwT-F1ko0Ly8EZt3ref-30" value="&lt;font style=&quot;font-size: 10px&quot;&gt;&lt;i&gt;*DataService stores ExecutionReports &lt;br&gt;in order to service MassStatusRequests&lt;/i&gt;&lt;/font&gt;" style="text;html=1;align=center;verticalAlign=middle;resizable=0;points=[];autosize=1;" parent="1" vertex="1">
          <mxGeometry x="590" y="540" width="190" height="30" as="geometry" />
        </mxCell>
      </root>
    </mxGraphModel>
  </diagram>
</mxfile>
